# xmcd
#
# Track frame offsets:
#	150
#	26028
#	44559
#	78958
#	117600
#	139000
#	171846
#	221117
#
# Disc length: 4043 seconds
#
# Revision: 0
# Processed by: cddbd v1.4PL0 Copyright (c) Steve Scherf et al.
# Submitted via: audiograbber 1.81.02
#
DISCID=740fc908
DTITLE=Allman Brothers - 1995-11-11 - Bristol TN - Disc 1
DYEAR=1900
DGENRE=
TTITLE0=abb1995-11 - 11d1t01
TTITLE1=abb1995-11 - 11d1t02
TTITLE2=abb1995-11 - 11d1t03
TTITLE3=abb1995-11 - 11d1t04
TTITLE4=abb1995-11 - 11d1t05
TTITLE5=abb1995-11 - 11d1t06
TTITLE6=abb1995-11 - 11d1t07
TTITLE7=abb1995-11 - 11d1t08
EXTD=
EXTT0=
EXTT1=
EXTT2=
EXTT3=
EXTT4=
EXTT5=
EXTT6=
EXTT7=
PLAYORDER=
